<svg height="512" viewBox="0 0 128 128" width="512" xmlns="http://www.w3.org/2000/svg"><g id="Circle_Grid" data-name="Circle Grid"><circle cx="64" cy="64" fill="#3b5059" r="64"/></g><g id="icon"><path d="m105.692 64.308a41.564 41.564 0 0 1 -12.963 30.215l-6.783-7.113a31.773 31.773 0 0 0 9.936-23.1z" fill="#2cbfae"/><path d="m64 22.617v9.81a31.869 31.869 0 0 0 -26.4 49.735l-7.827 5.949a41.692 41.692 0 0 1 34.227-65.494z" fill="#69b0ee"/><path d="m105.692 64.308h-9.81a31.917 31.917 0 0 0 -31.882-31.882v-9.81a41.693 41.693 0 0 1 41.692 41.692z" fill="#f6c863"/><path d="m92.729 94.523a41.693 41.693 0 0 1 -62.958-6.411l7.829-5.95a31.842 31.842 0 0 0 48.346 5.248z" fill="#ef5261"/><path d="m95.882 64.308a31.882 31.882 0 1 1 -31.882-31.882 31.773 31.773 0 0 1 31.882 31.882z" fill="none"/><g fill="#eeefee"><path d="m74.16 52.747h8.642v27.327h-8.642z"/><path d="m45.198 58.586h8.642v21.488h-8.642z"/><path d="m59.679 46.674h8.642v33.4h-8.642z"/></g></g></svg>